<svg width="1395" height="663" viewBox="0 0 1395 663" fill="none" xmlns="http://www.w3.org/2000/svg">
<mask id="mask0" mask-type="alpha" maskUnits="userSpaceOnUse" x="-5" y="0" width="1400" height="663">
<path d="M1295 0.569824H-5V662.082H1395V100.57C1395 45.3414 1350.23 0.569824 1295 0.569824Z" fill="#0F264C"/>
</mask>
<g mask="url(#mask0)">
<path opacity="0.2" d="M-221 306.609C-171.999 242.887 -42.2115 118.63 84.9269 131.375C243.85 147.305 -58.1039 446 84.9269 446C227.958 446 295.5 79.6007 398.8 79.6007C502.1 79.6007 283.581 350.418 398.8 366.348C514.019 382.278 609.373 -15.9817 736.512 -19.9643C863.65 -23.9469 605.4 306.609 812 306.609" stroke="url(#paint0_linear)" stroke-width="2"/>
</g>
<defs>
<linearGradient id="paint0_linear" x1="295.5" y1="90.3184" x2="295.5" y2="548.71" gradientUnits="userSpaceOnUse">
<stop stop-color="#F37753"/>
<stop offset="1" stop-color="white" stop-opacity="0"/>
</linearGradient>
</defs>
</svg>
